<svg width="21" height="21" viewBox="0 0 21 21" fill="none" xmlns="http://www.w3.org/2000/svg">
<path d="M18.2787 20.6973C11.8326 23.6434 1.827 4.19475 8.12787 0.909125L9.9715 0L13.027 5.96487L11.2044 6.86263C9.289 7.88987 13.2781 15.6826 15.2372 14.7324C15.3169 14.6965 17.0371 13.8513 17.0433 13.8477L20.125 19.7934C20.118 19.7969 18.3846 20.6491 18.2787 20.6973ZM10.0205 18.7162C8.729 19.6542 6.95275 19.74 6.412 18.809C6.00075 18.1011 6.13988 17.297 6.30088 16.3651C6.47675 15.3492 6.67625 14.1969 6.04275 13.1189C4.97613 11.3024 2.63288 11.3837 0.875 12.5326L1.7115 13.8127C2.43687 13.3385 3.2725 13.1346 3.89287 13.2799C5.33925 13.6194 4.9 15.4901 4.79413 16.1052C4.60863 17.1754 4.40037 18.389 5.089 19.5773C6.17663 21.4524 9.09562 21.3938 11.0705 19.8538C10.71 19.4976 10.3609 19.1161 10.0205 18.7162Z" fill="white"/>
</svg>
