<svg width="45" height="45" viewBox="0 0 45 45" fill="none" xmlns="http://www.w3.org/2000/svg">
<path fill-rule="evenodd" clip-rule="evenodd" d="M16.5544 35.625C15.7819 37.8094 13.6969 39.375 11.25 39.375C8.53875 39.375 6.27375 37.4531 5.74312 34.8994L1.5075 34.0519C0.63 33.8756 0 33.1069 0 32.2125V13.125C0 12.1312 0.395625 11.1769 1.09875 10.4737C1.80187 9.77062 2.75625 9.375 3.75 9.375H11.25C11.25 8.34 12.09 7.5 13.125 7.5H30C31.035 7.5 31.875 8.34 31.875 9.375H39.375C42.4819 9.375 45 11.8931 45 15V33.75C45 34.785 44.16 35.625 43.125 35.625H37.1794C36.4069 37.8094 34.3219 39.375 31.875 39.375C29.4281 39.375 27.3431 37.8094 26.5706 35.625H16.5544ZM11.25 31.875C12.285 31.875 13.125 32.715 13.125 33.75C13.125 34.785 12.285 35.625 11.25 35.625C10.215 35.625 9.375 34.785 9.375 33.75C9.375 32.715 10.215 31.875 11.25 31.875ZM31.875 31.875C32.91 31.875 33.75 32.715 33.75 33.75C33.75 34.785 32.91 35.625 31.875 35.625C30.84 35.625 30 34.785 30 33.75C30 32.715 30.84 31.875 31.875 31.875ZM41.25 26.25C38.3156 23.4375 35.5088 22.5 30 22.5V13.125H38.4375C39.99 13.125 41.25 14.385 41.25 15.9375V26.25ZM28.125 13.125H18.75V22.5H28.125V13.125ZM16.875 13.125H7.5V22.5H16.875V13.125Z" fill="#343A47"/>
</svg>
